# xmcd
#
# Track frame offsets: 
#        150
#        19407
#        43465
#        62325
#        88472
#        107597
#        134117
#        159405
#        177787
#        197592
#        216610
#        243247
#        261582
#        280685
#        299367
#
# Disc length: 4257 seconds
#
# Revision: 2
# Processed by: cddbd v1.5.2PL0 Copyright (c) Steve Scherf et al.
# Submitted via: ExactAudioCopy v1.3
#
DISCID=ef109f0f
DTITLE=Gary Moore - Out in the Fields (The Very Best of)
DYEAR=1998
DGENRE=Blues
TTITLE0=Out in the Fields
TTITLE1=Over the Hills and Far Away
TTITLE2=Run for Cover
TTITLE3=Parisienne Walkways (Live)
TTITLE4=Empty Rooms
TTITLE5=The Loner
TTITLE6=Military Man
TTITLE7=After the War
TTITLE8=Cold Day in Hell
TTITLE9=Wild Frontier
TTITLE10=Still in Love with You
TTITLE11=Wishing Well
TTITLE12=Friday on My Mind
TTITLE13=Still Got the Blues
TTITLE14=Ready for Love
EXTD=
EXTT0=
EXTT1=
EXTT2=
EXTT3=
EXTT4=
EXTT5=
EXTT6=
EXTT7=
EXTT8=
EXTT9=
EXTT10=
EXTT11=
EXTT12=
EXTT13=
EXTT14=
PLAYORDER=
